<svg width="100" height="100" viewBox="0 0 100 100" fill="none" xmlns="http://www.w3.org/2000/svg">
<path d="M96.0003 92.0001H5.00024V95.0001H96.0003V92.0001Z" fill="white"/>
<path d="M7.99976 61.9999H30.9998L30.4998 60.9999H7.99976V61.9999Z" fill="white"/>
<path d="M29.9995 60.0001L29.4995 59.0001H6.99951L7.99951 60.0001H29.9995Z" fill="white"/>
<path d="M46.9995 90.9998L44.9995 86.9998V83.9998H7.99951H6.99951L7.99951 84.9998V90.9998H8.99951V85.4998C8.99951 85.1998 9.19951 84.9998 9.49951 84.9998C9.79951 84.9998 9.99951 85.1998 9.99951 85.4998V90.9998H10.9995V85.4998C10.9995 85.1998 11.1995 84.9998 11.4995 84.9998C11.7995 84.9998 11.9995 85.1998 11.9995 85.4998V90.9998H12.9995V85.4998C12.9995 85.1998 13.1995 84.9998 13.4995 84.9998C13.7995 84.9998 13.9995 85.1998 13.9995 85.4998V90.9998H14.9995V85.4998C14.9995 85.1998 15.1995 84.9998 15.4995 84.9998C15.7995 84.9998 15.9995 85.1998 15.9995 85.4998V90.9998H16.9995V85.9998C16.9995 85.3998 17.3995 84.9998 17.9995 84.9998C18.5995 84.9998 18.9995 85.3998 18.9995 85.9998V90.9998H19.9995V85.9998C19.9995 85.3998 20.3995 84.9998 20.9995 84.9998C21.5995 84.9998 21.9995 85.3998 21.9995 85.9998V90.9998H22.9995V85.9998C22.9995 85.3998 23.3995 84.9998 23.9995 84.9998C24.5995 84.9998 24.9995 85.3998 24.9995 85.9998V90.9998H25.9995V85.9998C25.9995 85.3998 26.3995 84.9998 26.9995 84.9998C27.5995 84.9998 27.9995 85.3998 27.9995 85.9998V90.9998H29.9995V86.4998C29.9995 85.6998 30.6995 84.9998 31.4995 84.9998C32.2995 84.9998 32.9995 85.6998 32.9995 86.4998V90.9998H34.9995V86.4998C34.9995 85.6998 35.6995 84.9998 36.4995 84.9998C37.2995 84.9998 37.9995 85.6998 37.9995 86.4998V90.9998H39.9995V86.4998C39.9995 85.6998 40.6995 84.9998 41.4995 84.9998C42.2995 84.9998 42.9995 85.6998 42.9995 86.4998V90.9998H46.9995Z" fill="white"/>
<path d="M41.4995 83L38.9995 78V76H6.99951L7.99951 77V83H8.99951V77.5C8.99951 77.2 9.19951 77 9.49951 77C9.79951 77 9.99951 77.2 9.99951 77.5V83H10.9995V77.5C10.9995 77.2 11.1995 77 11.4995 77C11.7995 77 11.9995 77.2 11.9995 77.5V83H12.9995V77.5C12.9995 77.2 13.1995 77 13.4995 77C13.7995 77 13.9995 77.2 13.9995 77.5V83H14.9995V77.5C14.9995 77.2 15.1995 77 15.4995 77C15.7995 77 15.9995 77.2 15.9995 77.5V83H16.9995V78C16.9995 77.4 17.3995 77 17.9995 77C18.5995 77 18.9995 77.4 18.9995 78V83H19.9995V78C19.9995 77.4 20.3995 77 20.9995 77C21.5995 77 21.9995 77.4 21.9995 78V83H22.9995V78C22.9995 77.4 23.3995 77 23.9995 77C24.5995 77 24.9995 77.4 24.9995 78V83H25.9995V78C25.9995 77.4 26.3995 77 26.9995 77C27.5995 77 27.9995 77.4 27.9995 78V83H29.9995V78.5C29.9995 77.7 30.6995 77 31.4995 77C32.2995 77 32.9995 77.7 32.9995 78.5V83H34.9995V78.5C34.9995 77.7 35.6995 77 36.4995 77C37.2995 77 37.9995 77.7 37.9995 78.5V83H41.4995Z" fill="white"/>
<path d="M36.9995 74.9998L33.9995 68.9998V67.9998H6.99951L7.99951 68.9998V74.9998H8.99951V69.4998C8.99951 69.1998 9.19951 68.9998 9.49951 68.9998C9.79951 68.9998 9.99951 69.1998 9.99951 69.4998V74.9998H10.9995V69.4998C10.9995 69.1998 11.1995 68.9998 11.4995 68.9998C11.7995 68.9998 11.9995 69.1998 11.9995 69.4998V74.9998H12.9995V69.4998C12.9995 69.1998 13.1995 68.9998 13.4995 68.9998C13.7995 68.9998 13.9995 69.1998 13.9995 69.4998V74.9998H14.9995V69.4998C14.9995 69.1998 15.1995 68.9998 15.4995 68.9998C15.7995 68.9998 15.9995 69.1998 15.9995 69.4998V74.9998H16.9995V69.9998C16.9995 69.3998 17.3995 68.9998 17.9995 68.9998C18.5995 68.9998 18.9995 69.3998 18.9995 69.9998V74.9998H19.9995V69.9998C19.9995 69.3998 20.3995 68.9998 20.9995 68.9998C21.5995 68.9998 21.9995 69.3998 21.9995 69.9998V74.9998H22.9995V69.9998C22.9995 69.3998 23.3995 68.9998 23.9995 68.9998C24.5995 68.9998 24.9995 69.3998 24.9995 69.9998V74.9998H25.9995V69.9998C25.9995 69.3998 26.3995 68.9998 26.9995 68.9998C27.5995 68.9998 27.9995 69.3998 27.9995 69.9998V74.9998H29.9995V70.4998C29.9995 69.6998 30.6995 68.9998 31.4995 68.9998C32.2995 68.9998 32.9995 69.6998 32.9995 70.4998V74.9998H36.9995Z" fill="white"/>
<path d="M31.4995 63.0002H6.99951L7.99951 64.0002V67.0002H33.4995L31.4995 63.0002ZM26.9995 64.0002H27.9995V65.0002H26.9995V64.0002ZM20.9995 64.0002H21.9995V65.0002H20.9995V64.0002ZM14.9995 64.0002H15.9995V65.0002H14.9995V64.0002ZM10.9995 64.0002H11.9995V65.0002H10.9995V64.0002Z" fill="white"/>
<path d="M62.0007 61V60H31.0007L35.0007 68V69L38.0007 75H42.0007V69H59.0007H60.0007H62.0007H66.5007L62.0007 61ZM42.0007 66H41.0007V65H42.0007V66ZM52.0007 66H51.0007V65H52.0007V66ZM62.0007 66H61.0007V65H62.0007V66Z" fill="white"/>
<path d="M58 90.9998L55 84.9998V83.9998H46V85.0998C46.2 84.9998 46.3 84.9998 46.5 84.9998C47.3 84.9998 48 85.6998 48 86.4998V90.9998H50V86.4998C50 85.6998 50.7 84.9998 51.5 84.9998C52.3 84.9998 53 85.6998 53 86.4998V90.9998H58Z" fill="white"/>
<path d="M91.0005 70.0001V71.0001L89.5005 74.0001H82.5005L81.0005 71.0001V70.0001H43.0005V75.0001H50.0005V78.0001L50.1005 78.1001C50.3005 77.5001 50.8005 77.0001 51.5005 77.0001C52.3005 77.0001 53.0005 77.7001 53.0005 78.5001V83.0001H55.0005V78.5001C55.0005 77.7001 55.7005 77.0001 56.5005 77.0001C57.3005 77.0001 58.0005 77.7001 58.0005 78.5001V83.0001H56.0005V84.0001V85.0001V85.1001C56.1005 85.1001 56.3005 85.0001 56.5005 85.0001C57.3005 85.0001 58.0005 85.7001 58.0005 86.5001V89.0001L59.0005 91.0001H60.0005V86.5001C60.0005 85.7001 60.7005 85.0001 61.5005 85.0001C62.3005 85.0001 63.0005 85.7001 63.0005 86.5001V91.0001H65.0005V86.5001C65.0005 85.7001 65.7005 85.0001 66.5005 85.0001C67.3005 85.0001 68.0005 85.7001 68.0005 86.5001V91.0001H70.0005V86.5001C70.0005 85.7001 70.7005 85.0001 71.5005 85.0001C72.3005 85.0001 73.0005 85.7001 73.0005 86.5001V91.0001H75.0005V86.0001C75.0005 85.4001 75.4005 85.0001 76.0005 85.0001C76.6005 85.0001 77.0005 85.4001 77.0005 86.0001V91.0001H78.0005V86.0001C78.0005 85.4001 78.4005 85.0001 79.0005 85.0001C79.6005 85.0001 80.0005 85.4001 80.0005 86.0001V91.0001H81.0005V86.0001C81.0005 85.4001 81.4005 85.0001 82.0005 85.0001C82.6005 85.0001 83.0005 85.4001 83.0005 86.0001V91.0001H84.0005V86.0001C84.0005 85.4001 84.4005 85.0001 85.0005 85.0001C85.6005 85.0001 86.0005 85.4001 86.0005 86.0001V91.0001H87.0005V85.5001C87.0005 85.2001 87.2005 85.0001 87.5005 85.0001C87.8005 85.0001 88.0005 85.2001 88.0005 85.5001V91.0001H89.0005V85.5001C89.0005 85.2001 89.2005 85.0001 89.5005 85.0001C89.8005 85.0001 90.0005 85.2001 90.0005 85.5001V91.0001H91.0005V85.5001C91.0005 85.2001 91.2005 85.0001 91.5005 85.0001C91.8005 85.0001 92.0005 85.2001 92.0005 85.5001V91.0001H93.0005V70.0001H91.0005ZM45.0005 73.0001H44.0005V71.0001H45.0005V73.0001ZM49.0005 73.0001H48.0005V71.0001H49.0005V73.0001ZM55.0005 73.0001H54.0005V71.0001H55.0005V73.0001ZM57.0005 75.0001H56.0005V73.5001C56.0005 73.2001 56.2005 73.0001 56.5005 73.0001C56.8005 73.0001 57.0005 73.2001 57.0005 73.5001V75.0001ZM59.0005 73.0001H58.0005V71.0001H59.0005V73.0001ZM66.0005 73.5001C66.0005 73.2001 66.2005 73.0001 66.5005 73.0001C66.8005 73.0001 67.0005 73.2001 67.0005 73.5001V75.0001H66.0005V73.5001ZM63.0005 83.0001H60.0005V78.5001C60.0005 77.7001 60.7005 77.0001 61.5005 77.0001C62.3005 77.0001 63.0005 77.7001 63.0005 78.5001V83.0001ZM64.0005 73.0001V71.0001H65.0005V73.0001H64.0005ZM68.0005 83.0001H65.0005V78.5001C65.0005 77.7001 65.7005 77.0001 66.5005 77.0001C67.3005 77.0001 68.0005 77.7001 68.0005 78.5001V83.0001ZM69.0005 73.0001H68.0005V71.0001H69.0005V73.0001ZM73.0005 83.0001H70.0005V78.5001C70.0005 77.7001 70.7005 77.0001 71.5005 77.0001C72.3005 77.0001 73.0005 77.7001 73.0005 78.5001V83.0001ZM74.0005 73.0001V71.0001H75.0005V73.0001H74.0005ZM77.0005 83.0001H75.0005V78.0001C75.0005 77.4001 75.4005 77.0001 76.0005 77.0001C76.6005 77.0001 77.0005 77.4001 77.0005 78.0001V83.0001ZM77.0005 75.0001H76.0005V73.5001C76.0005 73.2001 76.2005 73.0001 76.5005 73.0001C76.8005 73.0001 77.0005 73.2001 77.0005 73.5001V75.0001ZM78.0005 71.0001H79.0005V73.0001H78.0005V71.0001ZM80.0005 83.0001H78.0005V78.0001C78.0005 77.4001 78.4005 77.0001 79.0005 77.0001C79.6005 77.0001 80.0005 77.4001 80.0005 78.0001V83.0001ZM83.0005 83.0001H81.0005V78.0001C81.0005 77.4001 81.4005 77.0001 82.0005 77.0001C82.6005 77.0001 83.0005 77.4001 83.0005 78.0001V83.0001ZM86.0005 83.0001H84.0005V78.0001C84.0005 77.4001 84.4005 77.0001 85.0005 77.0001C85.6005 77.0001 86.0005 77.4001 86.0005 78.0001V83.0001ZM88.0005 83.0001H87.0005V77.5001C87.0005 77.2001 87.2005 77.0001 87.5005 77.0001C87.8005 77.0001 88.0005 77.2001 88.0005 77.5001V83.0001ZM90.0005 83.0001H89.0005V77.5001C89.0005 77.2001 89.2005 77.0001 89.5005 77.0001C89.8005 77.0001 90.0005 77.2001 90.0005 77.5001V83.0001ZM92.0005 83.0001H91.0005V77.5001C91.0005 77.2001 91.2005 77.0001 91.5005 77.0001C91.8005 77.0001 92.0005 77.2001 92.0005 77.5001V83.0001ZM92.0005 75.0001H91.0005V73.5001C91.0005 73.2001 91.2005 73.0001 91.5005 73.0001C91.8005 73.0001 92.0005 73.2001 92.0005 73.5001V75.0001Z" fill="white"/>
<path d="M51.4993 83L48.9993 78V76H39.9993V78L40.0993 78.1C40.2993 77.5 40.7993 77 41.4993 77C42.2993 77 42.9993 77.7 42.9993 78.5V83H44.9993V78.5C44.9993 77.7 45.6993 77 46.4993 77C47.2993 77 47.9993 77.7 47.9993 78.5V83H51.4993Z" fill="white"/>
</svg>
