<?xml version="1.0" encoding="utf-8"?>
<svg width="100px" height="100px" viewBox="0 0 100 100" version="1.1" xmlns:xlink="http://www.w3.org/1999/xlink" xmlns="http://www.w3.org/2000/svg">
  <defs>
    <path d="M0 0L100 0L100 100L0 100L0 0Z" id="path_1" />
    <clipPath id="clip_1">
      <use xlink:href="#path_1" />
    </clipPath>
  </defs>
  <g id="classic" clip-path="url(#clip_1)">
    <path d="M0 0L100 0L100 100L0 100L0 0Z" id="classic" fill="none" fill-rule="evenodd" stroke="none" />
    <path d="M96.0003 92.0001L5.00024 92.0001L5.00024 95.0001L96.0003 95.0001L96.0003 92.0001L96.0003 92.0001Z" id="Shape" fill="#FF0000" stroke="none" />
    <path d="M7.99976 61.9999L30.9998 61.9999L30.4998 60.9999L7.99976 60.9999L7.99976 61.9999L7.99976 61.9999Z" id="Shape" fill="#FF0000" stroke="none" />
    <path d="M29.9995 60.0001L29.4995 59.0001L6.99951 59.0001L7.99951 60.0001L29.9995 60.0001L29.9995 60.0001Z" id="Shape" fill="#FF0000" stroke="none" />
    <path d="M46.9995 90.9998L44.9995 86.9998L44.9995 83.9998L7.99951 83.9998L6.99951 83.9998L7.99951 84.9998L7.99951 90.9998L8.99951 90.9998L8.99951 85.4998C8.99951 85.1998 9.19951 84.9998 9.49951 84.9998C9.79951 84.9998 9.99951 85.1998 9.99951 85.4998L9.99951 90.9998L10.9995 90.9998L10.9995 85.4998C10.9995 85.1998 11.1995 84.9998 11.4995 84.9998C11.7995 84.9998 11.9995 85.1998 11.9995 85.4998L11.9995 90.9998L12.9995 90.9998L12.9995 85.4998C12.9995 85.1998 13.1995 84.9998 13.4995 84.9998C13.7995 84.9998 13.9995 85.1998 13.9995 85.4998L13.9995 90.9998L14.9995 90.9998L14.9995 85.4998C14.9995 85.1998 15.1995 84.9998 15.4995 84.9998C15.7995 84.9998 15.9995 85.1998 15.9995 85.4998L15.9995 90.9998L16.9995 90.9998L16.9995 85.9998C16.9995 85.3998 17.3995 84.9998 17.9995 84.9998C18.5995 84.9998 18.9995 85.3998 18.9995 85.9998L18.9995 90.9998L19.9995 90.9998L19.9995 85.9998C19.9995 85.3998 20.3995 84.9998 20.9995 84.9998C21.5995 84.9998 21.9995 85.3998 21.9995 85.9998L21.9995 90.9998L22.9995 90.9998L22.9995 85.9998C22.9995 85.3998 23.3995 84.9998 23.9995 84.9998C24.5995 84.9998 24.9995 85.3998 24.9995 85.9998L24.9995 90.9998L25.9995 90.9998L25.9995 85.9998C25.9995 85.3998 26.3995 84.9998 26.9995 84.9998C27.5995 84.9998 27.9995 85.3998 27.9995 85.9998L27.9995 90.9998L29.9995 90.9998L29.9995 86.4998C29.9995 85.6998 30.6995 84.9998 31.4995 84.9998C32.2995 84.9998 32.9995 85.6998 32.9995 86.4998L32.9995 90.9998L34.9995 90.9998L34.9995 86.4998C34.9995 85.6998 35.6995 84.9998 36.4995 84.9998C37.2995 84.9998 37.9995 85.6998 37.9995 86.4998L37.9995 90.9998L39.9995 90.9998L39.9995 86.4998C39.9995 85.6998 40.6995 84.9998 41.4995 84.9998C42.2995 84.9998 42.9995 85.6998 42.9995 86.4998L42.9995 90.9998L46.9995 90.9998L46.9995 90.9998Z" id="Shape" fill="#FF0000" stroke="none" />
    <path d="M41.4995 83L38.9995 78L38.9995 76L6.99951 76L7.99951 77L7.99951 83L8.99951 83L8.99951 77.5C8.99951 77.2 9.19951 77 9.49951 77C9.79951 77 9.99951 77.2 9.99951 77.5L9.99951 83L10.9995 83L10.9995 77.5C10.9995 77.2 11.1995 77 11.4995 77C11.7995 77 11.9995 77.2 11.9995 77.5L11.9995 83L12.9995 83L12.9995 77.5C12.9995 77.2 13.1995 77 13.4995 77C13.7995 77 13.9995 77.2 13.9995 77.5L13.9995 83L14.9995 83L14.9995 77.5C14.9995 77.2 15.1995 77 15.4995 77C15.7995 77 15.9995 77.2 15.9995 77.5L15.9995 83L16.9995 83L16.9995 78C16.9995 77.4 17.3995 77 17.9995 77C18.5995 77 18.9995 77.4 18.9995 78L18.9995 83L19.9995 83L19.9995 78C19.9995 77.4 20.3995 77 20.9995 77C21.5995 77 21.9995 77.4 21.9995 78L21.9995 83L22.9995 83L22.9995 78C22.9995 77.4 23.3995 77 23.9995 77C24.5995 77 24.9995 77.4 24.9995 78L24.9995 83L25.9995 83L25.9995 78C25.9995 77.4 26.3995 77 26.9995 77C27.5995 77 27.9995 77.4 27.9995 78L27.9995 83L29.9995 83L29.9995 78.5C29.9995 77.7 30.6995 77 31.4995 77C32.2995 77 32.9995 77.7 32.9995 78.5L32.9995 83L34.9995 83L34.9995 78.5C34.9995 77.7 35.6995 77 36.4995 77C37.2995 77 37.9995 77.7 37.9995 78.5L37.9995 83L41.4995 83L41.4995 83Z" id="Shape" fill="#FF0000" stroke="none" />
    <path d="M36.9995 74.9998L33.9995 68.9998L33.9995 67.9998L6.99951 67.9998L7.99951 68.9998L7.99951 74.9998L8.99951 74.9998L8.99951 69.4998C8.99951 69.1998 9.19951 68.9998 9.49951 68.9998C9.79951 68.9998 9.99951 69.1998 9.99951 69.4998L9.99951 74.9998L10.9995 74.9998L10.9995 69.4998C10.9995 69.1998 11.1995 68.9998 11.4995 68.9998C11.7995 68.9998 11.9995 69.1998 11.9995 69.4998L11.9995 74.9998L12.9995 74.9998L12.9995 69.4998C12.9995 69.1998 13.1995 68.9998 13.4995 68.9998C13.7995 68.9998 13.9995 69.1998 13.9995 69.4998L13.9995 74.9998L14.9995 74.9998L14.9995 69.4998C14.9995 69.1998 15.1995 68.9998 15.4995 68.9998C15.7995 68.9998 15.9995 69.1998 15.9995 69.4998L15.9995 74.9998L16.9995 74.9998L16.9995 69.9998C16.9995 69.3998 17.3995 68.9998 17.9995 68.9998C18.5995 68.9998 18.9995 69.3998 18.9995 69.9998L18.9995 74.9998L19.9995 74.9998L19.9995 69.9998C19.9995 69.3998 20.3995 68.9998 20.9995 68.9998C21.5995 68.9998 21.9995 69.3998 21.9995 69.9998L21.9995 74.9998L22.9995 74.9998L22.9995 69.9998C22.9995 69.3998 23.3995 68.9998 23.9995 68.9998C24.5995 68.9998 24.9995 69.3998 24.9995 69.9998L24.9995 74.9998L25.9995 74.9998L25.9995 69.9998C25.9995 69.3998 26.3995 68.9998 26.9995 68.9998C27.5995 68.9998 27.9995 69.3998 27.9995 69.9998L27.9995 74.9998L29.9995 74.9998L29.9995 70.4998C29.9995 69.6998 30.6995 68.9998 31.4995 68.9998C32.2995 68.9998 32.9995 69.6998 32.9995 70.4998L32.9995 74.9998L36.9995 74.9998L36.9995 74.9998Z" id="Shape" fill="#FF0000" stroke="none" />
    <path d="M31.4995 63.0002L6.99951 63.0002L7.99951 64.0002L7.99951 67.0002L33.4995 67.0002L31.4995 63.0002L31.4995 63.0002ZM26.9995 64.0002L27.9995 64.0002L27.9995 65.0002L26.9995 65.0002L26.9995 64.0002L26.9995 64.0002ZM20.9995 64.0002L21.9995 64.0002L21.9995 65.0002L20.9995 65.0002L20.9995 64.0002L20.9995 64.0002ZM14.9995 64.0002L15.9995 64.0002L15.9995 65.0002L14.9995 65.0002L14.9995 64.0002L14.9995 64.0002ZM10.9995 64.0002L11.9995 64.0002L11.9995 65.0002L10.9995 65.0002L10.9995 64.0002L10.9995 64.0002Z" id="Shape" fill="#FF0000" fill-rule="evenodd" stroke="none" />
    <path d="M62.0007 61L62.0007 60L31.0007 60L35.0007 68L35.0007 69L38.0007 75L42.0007 75L42.0007 69L59.0007 69L60.0007 69L62.0007 69L66.5007 69L62.0007 61L62.0007 61ZM42.0007 66L41.0007 66L41.0007 65L42.0007 65L42.0007 66L42.0007 66ZM52.0007 66L51.0007 66L51.0007 65L52.0007 65L52.0007 66L52.0007 66ZM62.0007 66L61.0007 66L61.0007 65L62.0007 65L62.0007 66L62.0007 66Z" id="Shape" fill="#FF0000" fill-rule="evenodd" stroke="none" />
    <path d="M58 90.9998L55 84.9998L55 83.9998L46 83.9998L46 85.0998C46.2 84.9998 46.3 84.9998 46.5 84.9998C47.3 84.9998 48 85.6998 48 86.4998L48 90.9998L50 90.9998L50 86.4998C50 85.6998 50.7 84.9998 51.5 84.9998C52.3 84.9998 53 85.6998 53 86.4998L53 90.9998L58 90.9998L58 90.9998Z" id="Shape" fill="#FF0000" stroke="none" />
    <path d="M91.0005 70.0001L91.0005 71.0001L89.5005 74.0001L82.5005 74.0001L81.0005 71.0001L81.0005 70.0001L43.0005 70.0001L43.0005 75.0001L50.0005 75.0001L50.0005 78.0001L50.1005 78.1001C50.3005 77.5001 50.8005 77.0001 51.5005 77.0001C52.3005 77.0001 53.0005 77.7001 53.0005 78.5001L53.0005 83.0001L55.0005 83.0001L55.0005 78.5001C55.0005 77.7001 55.7005 77.0001 56.5005 77.0001C57.3005 77.0001 58.0005 77.7001 58.0005 78.5001L58.0005 83.0001L56.0005 83.0001L56.0005 84.0001L56.0005 85.0001L56.0005 85.1001C56.1005 85.1001 56.3005 85.0001 56.5005 85.0001C57.3005 85.0001 58.0005 85.7001 58.0005 86.5001L58.0005 89.0001L59.0005 91.0001L60.0005 91.0001L60.0005 86.5001C60.0005 85.7001 60.7005 85.0001 61.5005 85.0001C62.3005 85.0001 63.0005 85.7001 63.0005 86.5001L63.0005 91.0001L65.0005 91.0001L65.0005 86.5001C65.0005 85.7001 65.7005 85.0001 66.5005 85.0001C67.3005 85.0001 68.0005 85.7001 68.0005 86.5001L68.0005 91.0001L70.0005 91.0001L70.0005 86.5001C70.0005 85.7001 70.7005 85.0001 71.5005 85.0001C72.3005 85.0001 73.0005 85.7001 73.0005 86.5001L73.0005 91.0001L75.0005 91.0001L75.0005 86.0001C75.0005 85.4001 75.4005 85.0001 76.0005 85.0001C76.6005 85.0001 77.0005 85.4001 77.0005 86.0001L77.0005 91.0001L78.0005 91.0001L78.0005 86.0001C78.0005 85.4001 78.4005 85.0001 79.0005 85.0001C79.6005 85.0001 80.0005 85.4001 80.0005 86.0001L80.0005 91.0001L81.0005 91.0001L81.0005 86.0001C81.0005 85.4001 81.4005 85.0001 82.0005 85.0001C82.6005 85.0001 83.0005 85.4001 83.0005 86.0001L83.0005 91.0001L84.0005 91.0001L84.0005 86.0001C84.0005 85.4001 84.4005 85.0001 85.0005 85.0001C85.6005 85.0001 86.0005 85.4001 86.0005 86.0001L86.0005 91.0001L87.0005 91.0001L87.0005 85.5001C87.0005 85.2001 87.2005 85.0001 87.5005 85.0001C87.8005 85.0001 88.0005 85.2001 88.0005 85.5001L88.0005 91.0001L89.0005 91.0001L89.0005 85.5001C89.0005 85.2001 89.2005 85.0001 89.5005 85.0001C89.8005 85.0001 90.0005 85.2001 90.0005 85.5001L90.0005 91.0001L91.0005 91.0001L91.0005 85.5001C91.0005 85.2001 91.2005 85.0001 91.5005 85.0001C91.8005 85.0001 92.0005 85.2001 92.0005 85.5001L92.0005 91.0001L93.0005 91.0001L93.0005 70.0001L91.0005 70.0001L91.0005 70.0001ZM45.0005 73.0001L44.0005 73.0001L44.0005 71.0001L45.0005 71.0001L45.0005 73.0001L45.0005 73.0001ZM49.0005 73.0001L48.0005 73.0001L48.0005 71.0001L49.0005 71.0001L49.0005 73.0001L49.0005 73.0001ZM55.0005 73.0001L54.0005 73.0001L54.0005 71.0001L55.0005 71.0001L55.0005 73.0001L55.0005 73.0001ZM57.0005 75.0001L56.0005 75.0001L56.0005 73.5001C56.0005 73.2001 56.2005 73.0001 56.5005 73.0001C56.8005 73.0001 57.0005 73.2001 57.0005 73.5001L57.0005 75.0001L57.0005 75.0001ZM59.0005 73.0001L58.0005 73.0001L58.0005 71.0001L59.0005 71.0001L59.0005 73.0001L59.0005 73.0001ZM66.0005 73.5001C66.0005 73.2001 66.2005 73.0001 66.5005 73.0001C66.8005 73.0001 67.0005 73.2001 67.0005 73.5001L67.0005 75.0001L66.0005 75.0001L66.0005 73.5001L66.0005 73.5001ZM63.0005 83.0001L60.0005 83.0001L60.0005 78.5001C60.0005 77.7001 60.7005 77.0001 61.5005 77.0001C62.3005 77.0001 63.0005 77.7001 63.0005 78.5001L63.0005 83.0001L63.0005 83.0001ZM64.0005 73.0001L64.0005 71.0001L65.0005 71.0001L65.0005 73.0001L64.0005 73.0001L64.0005 73.0001ZM68.0005 83.0001L65.0005 83.0001L65.0005 78.5001C65.0005 77.7001 65.7005 77.0001 66.5005 77.0001C67.3005 77.0001 68.0005 77.7001 68.0005 78.5001L68.0005 83.0001L68.0005 83.0001ZM69.0005 73.0001L68.0005 73.0001L68.0005 71.0001L69.0005 71.0001L69.0005 73.0001L69.0005 73.0001ZM73.0005 83.0001L70.0005 83.0001L70.0005 78.5001C70.0005 77.7001 70.7005 77.0001 71.5005 77.0001C72.3005 77.0001 73.0005 77.7001 73.0005 78.5001L73.0005 83.0001L73.0005 83.0001ZM74.0005 73.0001L74.0005 71.0001L75.0005 71.0001L75.0005 73.0001L74.0005 73.0001L74.0005 73.0001ZM77.0005 83.0001L75.0005 83.0001L75.0005 78.0001C75.0005 77.4001 75.4005 77.0001 76.0005 77.0001C76.6005 77.0001 77.0005 77.4001 77.0005 78.0001L77.0005 83.0001L77.0005 83.0001ZM77.0005 75.0001L76.0005 75.0001L76.0005 73.5001C76.0005 73.2001 76.2005 73.0001 76.5005 73.0001C76.8005 73.0001 77.0005 73.2001 77.0005 73.5001L77.0005 75.0001L77.0005 75.0001ZM78.0005 71.0001L79.0005 71.0001L79.0005 73.0001L78.0005 73.0001L78.0005 71.0001L78.0005 71.0001ZM80.0005 83.0001L78.0005 83.0001L78.0005 78.0001C78.0005 77.4001 78.4005 77.0001 79.0005 77.0001C79.6005 77.0001 80.0005 77.4001 80.0005 78.0001L80.0005 83.0001L80.0005 83.0001ZM83.0005 83.0001L81.0005 83.0001L81.0005 78.0001C81.0005 77.4001 81.4005 77.0001 82.0005 77.0001C82.6005 77.0001 83.0005 77.4001 83.0005 78.0001L83.0005 83.0001L83.0005 83.0001ZM86.0005 83.0001L84.0005 83.0001L84.0005 78.0001C84.0005 77.4001 84.4005 77.0001 85.0005 77.0001C85.6005 77.0001 86.0005 77.4001 86.0005 78.0001L86.0005 83.0001L86.0005 83.0001ZM88.0005 83.0001L87.0005 83.0001L87.0005 77.5001C87.0005 77.2001 87.2005 77.0001 87.5005 77.0001C87.8005 77.0001 88.0005 77.2001 88.0005 77.5001L88.0005 83.0001L88.0005 83.0001ZM90.0005 83.0001L89.0005 83.0001L89.0005 77.5001C89.0005 77.2001 89.2005 77.0001 89.5005 77.0001C89.8005 77.0001 90.0005 77.2001 90.0005 77.5001L90.0005 83.0001L90.0005 83.0001ZM92.0005 83.0001L91.0005 83.0001L91.0005 77.5001C91.0005 77.2001 91.2005 77.0001 91.5005 77.0001C91.8005 77.0001 92.0005 77.2001 92.0005 77.5001L92.0005 83.0001L92.0005 83.0001ZM92.0005 75.0001L91.0005 75.0001L91.0005 73.5001C91.0005 73.2001 91.2005 73.0001 91.5005 73.0001C91.8005 73.0001 92.0005 73.2001 92.0005 73.5001L92.0005 75.0001L92.0005 75.0001Z" id="Shape" fill="#FF0000" fill-rule="evenodd" stroke="none" />
    <path d="M51.4993 83L48.9993 78L48.9993 76L39.9993 76L39.9993 78L40.0993 78.1C40.2993 77.5 40.7993 77 41.4993 77C42.2993 77 42.9993 77.7 42.9993 78.5L42.9993 83L44.9993 83L44.9993 78.5C44.9993 77.7 45.6993 77 46.4993 77C47.2993 77 47.9993 77.7 47.9993 78.5L47.9993 83L51.4993 83L51.4993 83Z" id="Shape" fill="#FF0000" stroke="none" />
  </g>
</svg>